<svg viewBox="0 0 100 250" xmlns="http://www.w3.org/2000/svg">

  <!-- Outline layer: non-interactive body silhouette elements -->
  <g id="outline-layer">
    <!-- Head -->
    <ellipse id="outline-head" cx="50" cy="12" rx="8" ry="10" fill="oklch(0.14 0.02 265)" stroke="oklch(0.18 0.03 265)" stroke-width="1" pointer-events="none"/>
    <!-- Neck -->
    <rect id="outline-neck" x="46" y="21" width="8" height="7" rx="1" fill="oklch(0.14 0.02 265)" stroke="oklch(0.18 0.03 265)" stroke-width="1" pointer-events="none"/>
    <!-- Left hand (viewer's right — opposite mirroring for back view) -->
    <path id="outline-hand-left" d="M83 88 Q85 90 86 93 Q87 96 86 98 Q85 100 83 101 Q81 102 79 101 Q77 100 76 98 Q75 95 76 92 Q77 89 79 88 Z" fill="oklch(0.14 0.02 265)" stroke="oklch(0.18 0.03 265)" stroke-width="1" pointer-events="none"/>
    <!-- Right hand (viewer's left) -->
    <path id="outline-hand-right" d="M17 88 Q15 90 14 93 Q13 96 14 98 Q15 100 17 101 Q19 102 21 101 Q23 100 24 98 Q25 95 24 92 Q23 89 21 88 Z" fill="oklch(0.14 0.02 265)" stroke="oklch(0.18 0.03 265)" stroke-width="1" pointer-events="none"/>
    <!-- Left foot -->
    <path id="outline-foot-left" d="M66 232 Q69 234 70 237 Q70 240 68 241 Q64 242 60 241 Q58 240 58 237 Q58 234 60 232 Z" fill="oklch(0.14 0.02 265)" stroke="oklch(0.18 0.03 265)" stroke-width="1" pointer-events="none"/>
    <!-- Right foot -->
    <path id="outline-foot-right" d="M34 232 Q31 234 30 237 Q30 240 32 241 Q36 242 40 241 Q42 240 42 237 Q42 234 40 232 Z" fill="oklch(0.14 0.02 265)" stroke="oklch(0.18 0.03 265)" stroke-width="1" pointer-events="none"/>
  </g>

  <!-- Visual layer: interactive muscle paths (Advanced mode — individual muscle heads) -->
  <g id="visual-layer">

    <!-- Trapezius Upper (upper back/neck area) — left and right -->
    <path id="muscle-trapezius-upper" d="M42 24 Q36 26 30 30 Q27 33 27 36 Q28 39 32 38 Q38 35 44 31 Q46 29 46 25 Z M58 24 Q64 26 70 30 Q73 33 73 36 Q72 39 68 38 Q62 35 56 31 Q54 29 54 25 Z" fill="oklch(0.22 0.02 265)" stroke="oklch(0.18 0.03 265)" stroke-width="1" pointer-events="none"/>

    <!-- Posterior Deltoid (rear shoulder caps) — left and right -->
    <path id="muscle-posterior-deltoid" d="M26 28 Q22 30 21 34 Q20 38 22 41 Q24 43 27 42 Q30 40 31 36 Q31 31 28 28 Z M74 28 Q78 30 79 34 Q80 38 78 41 Q76 43 73 42 Q70 40 69 36 Q69 31 72 28 Z" fill="oklch(0.22 0.02 265)" stroke="oklch(0.18 0.03 265)" stroke-width="1" pointer-events="none"/>

    <!-- Supraspinatus (above spine of scapula, small muscle) — left and right -->
    <path id="muscle-supraspinatus" d="M28 28 Q27 30 28 33 Q30 35 33 35 Q35 34 36 31 Q34 28 31 27 Z M72 28 Q73 30 72 33 Q70 35 67 35 Q65 34 64 31 Q66 28 69 27 Z" fill="oklch(0.22 0.02 265)" stroke="oklch(0.18 0.03 265)" stroke-width="1" pointer-events="none"/>

    <!-- Infraspinatus (on scapula) — left and right -->
    <path id="muscle-infraspinatus" d="M30 33 Q28 35 28 40 Q29 44 32 45 Q35 45 37 43 Q38 40 37 36 Q35 33 32 33 Z M70 33 Q72 35 72 40 Q71 44 68 45 Q65 45 63 43 Q62 40 63 36 Q65 33 68 33 Z" fill="oklch(0.22 0.02 265)" stroke="oklch(0.18 0.03 265)" stroke-width="1" pointer-events="none"/>

    <!-- Teres Minor (small muscle above teres major) — left and right -->
    <path id="muscle-teres-minor" d="M27 35 Q25 37 25 40 Q26 42 29 42 Q31 41 32 39 Q31 36 29 35 Z M73 35 Q75 37 75 40 Q74 42 71 42 Q69 41 68 39 Q69 36 71 35 Z" fill="oklch(0.22 0.02 265)" stroke="oklch(0.18 0.03 265)" stroke-width="1" pointer-events="none"/>

    <!-- Trapezius Middle (mid back center) — left and right -->
    <path id="muscle-trapezius-middle" d="M37 35 Q34 37 33 42 Q33 46 36 47 Q40 47 43 44 Q45 41 44 37 Q42 35 39 35 Z M63 35 Q66 37 67 42 Q67 46 64 47 Q60 47 57 44 Q55 41 56 37 Q58 35 61 35 Z" fill="oklch(0.22 0.02 265)" stroke="oklch(0.18 0.03 265)" stroke-width="1" pointer-events="none"/>

    <!-- Teres Major (below rear delt) — left and right -->
    <path id="muscle-teres-major" d="M28 38 Q26 40 26 44 Q27 47 30 47 Q33 47 34 44 Q35 41 33 38 Q31 37 29 38 Z M72 38 Q74 40 74 44 Q73 47 70 47 Q67 47 66 44 Q65 41 67 38 Q69 37 71 38 Z" fill="oklch(0.22 0.02 265)" stroke="oklch(0.18 0.03 265)" stroke-width="1" pointer-events="none"/>

    <!-- Rotator Cuff (deep shoulder, partially visible) — left and right -->
    <path id="muscle-rotator-cuff" d="M23 34 Q21 36 21 40 Q22 43 25 43 Q27 42 28 39 Q27 35 25 34 Z M77 34 Q79 36 79 40 Q78 43 75 43 Q73 42 72 39 Q73 35 75 34 Z" fill="oklch(0.22 0.02 265)" stroke="oklch(0.18 0.03 265)" stroke-width="1" pointer-events="none"/>

    <!-- Rhomboids (between spine and scapula) — left and right -->
    <path id="muscle-rhomboids" d="M40 36 Q37 38 37 43 Q38 47 41 48 Q44 48 46 45 Q47 42 46 38 Q44 36 41 36 Z M60 36 Q63 38 63 43 Q62 47 59 48 Q56 48 54 45 Q53 42 54 38 Q56 36 59 36 Z" fill="oklch(0.22 0.02 265)" stroke="oklch(0.18 0.03 265)" stroke-width="1" pointer-events="none"/>

    <!-- Latissimus Dorsi (wide back) — left and right -->
    <path id="muscle-latissimus-dorsi" d="M27 42 Q24 46 24 54 Q25 60 28 62 Q33 64 38 62 Q42 59 43 54 Q43 48 40 44 Q35 42 29 42 Z M73 42 Q76 46 76 54 Q75 60 72 62 Q67 64 62 62 Q58 59 57 54 Q57 48 60 44 Q65 42 71 42 Z" fill="oklch(0.22 0.02 265)" stroke="oklch(0.18 0.03 265)" stroke-width="1" pointer-events="none"/>

    <!-- Trapezius Lower (lower mid back) — left and right -->
    <path id="muscle-trapezius-lower" d="M37 46 Q34 49 34 53 Q35 56 38 56 Q42 56 44 53 Q45 50 43 47 Q41 46 38 46 Z M63 46 Q66 49 66 53 Q65 56 62 56 Q58 56 56 53 Q55 50 57 47 Q59 46 62 46 Z" fill="oklch(0.22 0.02 265)" stroke="oklch(0.18 0.03 265)" stroke-width="1" pointer-events="none"/>

    <!-- Erector Spinae (along spine) — left and right -->
    <path id="muscle-erector-spinae" d="M44 42 Q42 46 42 58 Q42 66 43 72 Q45 74 48 73 Q49 70 49 58 Q49 46 47 42 Z M56 42 Q58 46 58 58 Q58 66 57 72 Q55 74 52 73 Q51 70 51 58 Q51 46 53 42 Z" fill="oklch(0.22 0.02 265)" stroke="oklch(0.18 0.03 265)" stroke-width="1" pointer-events="none"/>

    <!-- Triceps Long Head (inner/long portion) — left and right -->
    <path id="muscle-triceps-long-head" d="M20 40 Q18 43 18 51 Q19 57 21 60 Q23 61 24 60 Q25 58 25 51 Q24 44 22 41 Z M80 40 Q82 43 82 51 Q81 57 79 60 Q77 61 76 60 Q75 58 75 51 Q76 44 78 41 Z" fill="oklch(0.22 0.02 265)" stroke="oklch(0.18 0.03 265)" stroke-width="1" pointer-events="none"/>

    <!-- Triceps Lateral Head (outer portion) — left and right -->
    <path id="muscle-triceps-lateral-head" d="M17 40 Q15 43 15 51 Q16 57 18 60 Q20 61 21 60 Q22 58 22 51 Q21 44 19 41 Z M83 40 Q85 43 85 51 Q84 57 82 60 Q80 61 79 60 Q78 58 78 51 Q79 44 81 41 Z" fill="oklch(0.22 0.02 265)" stroke="oklch(0.18 0.03 265)" stroke-width="1" pointer-events="none"/>

    <!-- Triceps Medial Head (deep head, smaller) — left and right -->
    <path id="muscle-triceps-medial-head" d="M22 48 Q21 50 21 56 Q22 59 24 59 Q25 57 25 52 Q25 49 23 48 Z M78 48 Q79 50 79 56 Q78 59 76 59 Q75 57 75 52 Q75 49 77 48 Z" fill="oklch(0.22 0.02 265)" stroke="oklch(0.18 0.03 265)" stroke-width="1" pointer-events="none"/>

    <!-- Wrist Extensors (back forearm) — left and right -->
    <path id="muscle-wrist-extensors" d="M19 63 Q17 66 17 74 Q18 79 20 80 Q22 81 24 80 Q26 77 26 72 Q25 67 23 64 Z M81 63 Q83 66 83 74 Q82 79 80 80 Q78 81 76 80 Q74 77 74 72 Q75 67 77 64 Z" fill="oklch(0.22 0.02 265)" stroke="oklch(0.18 0.03 265)" stroke-width="1" pointer-events="none"/>

    <!-- Lower Back (lumbar region) -->
    <path id="muscle-lower-back" d="M38 62 Q34 65 33 70 Q33 75 36 77 Q40 78 50 78 Q60 78 64 77 Q67 75 67 70 Q66 65 62 62 Q57 60 50 60 Q43 60 38 62 Z" fill="oklch(0.22 0.02 265)" stroke="oklch(0.18 0.03 265)" stroke-width="1" pointer-events="none"/>

    <!-- Gluteus Medius (upper outer buttock) — left and right -->
    <path id="muscle-gluteus-medius" d="M30 70 Q27 73 27 78 Q28 82 32 83 Q36 83 38 80 Q39 77 38 73 Q36 70 32 70 Z M70 70 Q73 73 73 78 Q72 82 68 83 Q64 83 62 80 Q61 77 62 73 Q64 70 68 70 Z" fill="oklch(0.22 0.02 265)" stroke="oklch(0.18 0.03 265)" stroke-width="1" pointer-events="none"/>

    <!-- Gluteus Maximus (buttocks) — left and right -->
    <path id="muscle-gluteus-maximus" d="M32 76 Q28 80 28 86 Q29 91 33 92 Q38 93 43 90 Q46 87 46 82 Q45 77 42 75 Q38 73 34 76 Z M68 76 Q72 80 72 86 Q71 91 67 92 Q62 93 57 90 Q54 87 54 82 Q55 77 58 75 Q62 73 66 76 Z" fill="oklch(0.22 0.02 265)" stroke="oklch(0.18 0.03 265)" stroke-width="1" pointer-events="none"/>

    <!-- Gluteus Minimus (deep glute, small visible region) — left and right -->
    <path id="muscle-gluteus-minimus" d="M32 72 Q30 74 30 78 Q31 80 34 80 Q36 79 37 76 Q36 73 34 72 Z M68 72 Q70 74 70 78 Q69 80 66 80 Q64 79 63 76 Q64 73 66 72 Z" fill="oklch(0.22 0.02 265)" stroke="oklch(0.18 0.03 265)" stroke-width="1" pointer-events="none"/>

    <!-- Piriformis (deep buttock rotator, partially visible) — left and right -->
    <path id="muscle-piriformis" d="M34 82 Q32 84 32 87 Q33 90 36 90 Q38 89 38 86 Q37 83 35 82 Z M66 82 Q68 84 68 87 Q67 90 64 90 Q62 89 62 86 Q63 83 65 82 Z" fill="oklch(0.22 0.02 265)" stroke="oklch(0.18 0.03 265)" stroke-width="1" pointer-events="none"/>

    <!-- Hamstrings Biceps Femoris (outer back thigh) — left and right -->
    <path id="muscle-hamstrings-biceps-femoris" d="M31 90 Q28 95 28 108 Q28 120 31 126 Q33 129 36 128 Q39 126 39 114 Q39 100 37 93 Q35 90 32 90 Z M69 90 Q72 95 72 108 Q72 120 69 126 Q67 129 64 128 Q61 126 61 114 Q61 100 63 93 Q65 90 68 90 Z" fill="oklch(0.22 0.02 265)" stroke="oklch(0.18 0.03 265)" stroke-width="1" pointer-events="none"/>

    <!-- Hamstrings Semitendinosus (inner back thigh medial) — left and right -->
    <path id="muscle-hamstrings-semitendinosus" d="M43 90 Q41 95 41 108 Q41 120 43 126 Q45 129 48 128 Q50 126 50 114 Q50 100 49 93 Q47 90 44 90 Z M57 90 Q59 95 59 108 Q59 120 57 126 Q55 129 52 128 Q50 126 50 114 Q50 100 51 93 Q53 90 56 90 Z" fill="oklch(0.22 0.02 265)" stroke="oklch(0.18 0.03 265)" stroke-width="1" pointer-events="none"/>

    <!-- Hamstrings Semimembranosus (deep inner back thigh) — left and right -->
    <path id="muscle-hamstrings-semimembranosus" d="M39 92 Q37 97 37 110 Q37 120 39 126 Q41 128 43 127 Q44 125 44 113 Q44 101 42 94 Q41 92 40 92 Z M61 92 Q63 97 63 110 Q63 120 61 126 Q59 128 57 127 Q56 125 56 113 Q56 101 58 94 Q59 92 60 92 Z" fill="oklch(0.22 0.02 265)" stroke="oklch(0.18 0.03 265)" stroke-width="1" pointer-events="none"/>

    <!-- Popliteus (behind the knee, small muscle) — left and right -->
    <path id="muscle-popliteus" d="M35 124 Q33 126 33 130 Q34 133 37 133 Q39 132 40 129 Q39 126 37 124 Z M65 124 Q67 126 67 130 Q66 133 63 133 Q61 132 60 129 Q61 126 63 124 Z" fill="oklch(0.22 0.02 265)" stroke="oklch(0.18 0.03 265)" stroke-width="1" pointer-events="none"/>

    <!-- Gastrocnemius (calf — back of lower leg) — left and right -->
    <path id="muscle-gastrocnemius" d="M30 130 Q27 135 27 150 Q27 163 30 168 Q33 171 37 170 Q40 167 40 153 Q40 138 37 132 Q35 130 32 130 Z M70 130 Q73 135 73 150 Q73 163 70 168 Q67 171 63 170 Q60 167 60 153 Q60 138 63 132 Q65 130 68 130 Z" fill="oklch(0.22 0.02 265)" stroke="oklch(0.18 0.03 265)" stroke-width="1" pointer-events="none"/>

    <!-- Soleus (lower calf, below gastrocnemius) — left and right -->
    <path id="muscle-soleus" d="M31 165 Q29 168 29 178 Q29 188 31 194 Q33 197 37 196 Q40 193 40 183 Q40 172 38 167 Q36 165 33 165 Z M69 165 Q71 168 71 178 Q71 188 69 194 Q67 197 63 196 Q60 193 60 183 Q60 172 62 167 Q64 165 67 165 Z" fill="oklch(0.22 0.02 265)" stroke="oklch(0.18 0.03 265)" stroke-width="1" pointer-events="none"/>

  </g>

  <!-- Hit layer: transparent overlay paths for click/tap targets -->
  <g id="hit-layer">

    <path id="hit-muscle-trapezius-upper" d="M40 22 Q34 25 28 30 Q25 33 25 37 Q26 41 31 40 Q37 36 43 31 Q46 28 46 23 Z M60 22 Q66 25 72 30 Q75 33 75 37 Q74 41 69 40 Q63 36 57 31 Q54 28 54 23 Z" fill="transparent" stroke="none"/>

    <path id="hit-muscle-posterior-deltoid" d="M24 26 Q20 29 19 34 Q18 39 20 43 Q22 46 27 45 Q31 43 33 37 Q33 30 29 26 Z M76 26 Q80 29 81 34 Q82 39 80 43 Q78 46 73 45 Q69 43 67 37 Q67 30 71 26 Z" fill="transparent" stroke="none"/>

    <!-- Supraspinatus hit expanded to 24x24 minimum -->
    <path id="hit-muscle-supraspinatus" d="M25 25 Q24 28 25 34 Q27 37 31 37 Q35 36 37 32 Q36 26 32 24 Z M75 25 Q76 28 75 34 Q73 37 69 37 Q65 36 63 32 Q64 26 68 24 Z" fill="transparent" stroke="none"/>

    <path id="hit-muscle-infraspinatus" d="M28 31 Q26 34 26 41 Q27 46 31 47 Q35 47 38 45 Q40 42 39 36 Q37 31 33 31 Z M72 31 Q74 34 74 41 Q73 46 69 47 Q65 47 62 45 Q60 42 61 36 Q63 31 67 31 Z" fill="transparent" stroke="none"/>

    <!-- Teres minor hit expanded to 24x24 -->
    <path id="hit-muscle-teres-minor" d="M24 33 Q22 36 22 41 Q23 44 27 45 Q31 44 33 41 Q33 37 31 33 Q29 32 26 33 Z M76 33 Q78 36 78 41 Q77 44 73 45 Q69 44 67 41 Q67 37 69 33 Q71 32 74 33 Z" fill="transparent" stroke="none"/>

    <path id="hit-muscle-trapezius-middle" d="M35 33 Q32 36 31 42 Q31 47 35 49 Q39 49 43 46 Q46 43 45 37 Q43 33 39 33 Z M65 33 Q68 36 69 42 Q69 47 65 49 Q61 49 57 46 Q54 43 55 37 Q57 33 61 33 Z" fill="transparent" stroke="none"/>

    <path id="hit-muscle-teres-major" d="M26 36 Q24 39 24 44 Q25 48 29 49 Q33 49 35 46 Q37 43 35 38 Q33 35 29 36 Z M74 36 Q76 39 76 44 Q75 48 71 49 Q67 49 65 46 Q63 43 65 38 Q67 35 71 36 Z" fill="transparent" stroke="none"/>

    <!-- Rotator cuff hit expanded to 24x24 -->
    <path id="hit-muscle-rotator-cuff" d="M19 32 Q17 35 17 42 Q18 46 23 47 Q27 46 29 41 Q29 35 26 32 Q23 30 20 32 Z M81 32 Q83 35 83 42 Q82 46 77 47 Q73 46 71 41 Q71 35 74 32 Q77 30 80 32 Z" fill="transparent" stroke="none"/>

    <path id="hit-muscle-rhomboids" d="M38 34 Q35 37 35 43 Q36 48 40 49 Q44 49 47 46 Q49 43 48 37 Q46 34 42 34 Z M62 34 Q65 37 65 43 Q64 48 60 49 Q56 49 53 46 Q51 43 52 37 Q54 34 58 34 Z" fill="transparent" stroke="none"/>

    <path id="hit-muscle-latissimus-dorsi" d="M25 40 Q22 44 22 54 Q23 62 26 64 Q31 66 38 64 Q43 61 44 55 Q44 47 41 43 Q35 40 28 40 Z M75 40 Q78 44 78 54 Q77 62 74 64 Q69 66 62 64 Q57 61 56 55 Q56 47 59 43 Q65 40 72 40 Z" fill="transparent" stroke="none"/>

    <path id="hit-muscle-trapezius-lower" d="M35 44 Q32 48 32 53 Q33 57 37 58 Q41 58 44 55 Q46 52 44 47 Q42 44 38 44 Z M65 44 Q68 48 68 53 Q67 57 63 58 Q59 58 56 55 Q54 52 56 47 Q58 44 62 44 Z" fill="transparent" stroke="none"/>

    <path id="hit-muscle-erector-spinae" d="M42 40 Q40 45 40 58 Q40 67 41 73 Q43 76 48 75 Q50 72 50 58 Q50 45 48 40 Z M58 40 Q60 45 60 58 Q60 67 59 73 Q57 76 52 75 Q50 72 50 58 Q50 45 52 40 Z" fill="transparent" stroke="none"/>

    <!-- Triceps long head hit area -->
    <path id="hit-muscle-triceps-long-head" d="M17 38 Q15 42 15 52 Q16 59 18 62 Q21 64 25 63 Q27 61 27 53 Q27 44 24 39 Q22 37 19 38 Z M83 38 Q85 42 85 52 Q84 59 82 62 Q79 64 75 63 Q73 61 73 53 Q73 44 76 39 Q78 37 81 38 Z" fill="transparent" stroke="none"/>

    <!-- Triceps lateral head hit area -->
    <path id="hit-muscle-triceps-lateral-head" d="M14 38 Q12 42 12 52 Q13 59 15 62 Q17 64 20 63 Q22 61 22 53 Q22 44 19 39 Q17 37 15 38 Z M86 38 Q88 42 88 52 Q87 59 85 62 Q83 64 80 63 Q78 61 78 53 Q78 44 81 39 Q83 37 85 38 Z" fill="transparent" stroke="none"/>

    <!-- Triceps medial head hit expanded to 24x24 -->
    <path id="hit-muscle-triceps-medial-head" d="M19 46 Q18 49 18 57 Q19 61 22 62 Q25 61 26 58 Q27 53 26 48 Q24 45 21 46 Z M81 46 Q82 49 82 57 Q81 61 78 62 Q75 61 74 58 Q73 53 74 48 Q76 45 79 46 Z" fill="transparent" stroke="none"/>

    <path id="hit-muscle-wrist-extensors" d="M16 61 Q14 65 14 74 Q15 80 18 82 Q21 83 25 82 Q27 79 27 73 Q26 67 23 62 Z M84 61 Q86 65 86 74 Q85 80 82 82 Q79 83 75 82 Q73 79 73 73 Q74 67 77 62 Z" fill="transparent" stroke="none"/>

    <path id="hit-muscle-lower-back" d="M36 60 Q32 64 31 70 Q31 76 34 78 Q38 80 50 80 Q62 80 66 78 Q69 76 69 70 Q68 64 64 60 Q58 58 50 58 Q42 58 36 60 Z" fill="transparent" stroke="none"/>

    <path id="hit-muscle-gluteus-medius" d="M28 68 Q25 72 25 79 Q26 84 31 85 Q36 86 39 82 Q41 79 40 73 Q38 68 33 68 Z M72 68 Q75 72 75 79 Q74 84 69 85 Q64 86 61 82 Q59 79 60 73 Q62 68 67 68 Z" fill="transparent" stroke="none"/>

    <path id="hit-muscle-gluteus-maximus" d="M30 74 Q26 78 26 86 Q27 93 32 95 Q38 96 44 93 Q47 90 47 84 Q46 78 43 74 Q39 71 34 74 Z M70 74 Q74 78 74 86 Q73 93 68 95 Q62 96 56 93 Q53 90 53 84 Q54 78 57 74 Q61 71 66 74 Z" fill="transparent" stroke="none"/>

    <!-- Gluteus minimus hit expanded to 24x24 -->
    <path id="hit-muscle-gluteus-minimus" d="M28 70 Q26 73 26 79 Q27 83 32 84 Q36 83 38 79 Q38 74 36 71 Q33 69 30 70 Z M72 70 Q74 73 74 79 Q73 83 68 84 Q64 83 62 79 Q62 74 64 71 Q67 69 70 70 Z" fill="transparent" stroke="none"/>

    <!-- Piriformis hit expanded to 24x24 -->
    <path id="hit-muscle-piriformis" d="M30 80 Q28 83 28 88 Q29 92 33 93 Q37 92 39 88 Q39 83 37 80 Q35 78 32 80 Z M70 80 Q72 83 72 88 Q71 92 67 93 Q63 92 61 88 Q61 83 63 80 Q65 78 68 80 Z" fill="transparent" stroke="none"/>

    <path id="hit-muscle-hamstrings-biceps-femoris" d="M29 88 Q26 94 26 108 Q26 121 29 128 Q31 132 36 131 Q40 129 40 116 Q40 100 38 92 Q36 88 32 88 Z M71 88 Q74 94 74 108 Q74 121 71 128 Q69 132 64 131 Q60 129 60 116 Q60 100 62 92 Q64 88 68 88 Z" fill="transparent" stroke="none"/>

    <path id="hit-muscle-hamstrings-semitendinosus" d="M41 88 Q39 94 39 108 Q39 121 41 128 Q43 132 48 131 Q51 129 51 116 Q51 100 50 92 Q48 88 44 88 Z M59 88 Q61 94 61 108 Q61 121 59 128 Q57 132 52 131 Q49 129 49 116 Q49 100 50 92 Q52 88 56 88 Z" fill="transparent" stroke="none"/>

    <!-- Semimembranosus hit area -->
    <path id="hit-muscle-hamstrings-semimembranosus" d="M37 90 Q35 96 35 110 Q35 121 37 127 Q39 130 42 130 Q45 129 45 116 Q45 103 43 94 Q42 90 39 90 Z M63 90 Q65 96 65 110 Q65 121 63 127 Q61 130 58 130 Q55 129 55 116 Q55 103 57 94 Q58 90 61 90 Z" fill="transparent" stroke="none"/>

    <!-- Popliteus hit expanded to 24x24 -->
    <path id="hit-muscle-popliteus" d="M32 122 Q30 125 30 132 Q31 136 36 137 Q40 136 42 132 Q42 126 40 122 Q38 120 35 121 Z M68 122 Q70 125 70 132 Q69 136 64 137 Q60 136 58 132 Q58 126 60 122 Q62 120 65 121 Z" fill="transparent" stroke="none"/>

    <path id="hit-muscle-gastrocnemius" d="M28 128 Q25 134 25 150 Q25 165 28 170 Q31 174 37 173 Q41 170 41 154 Q41 137 38 130 Q36 128 32 128 Z M72 128 Q75 134 75 150 Q75 165 72 170 Q69 174 63 173 Q59 170 59 154 Q59 137 62 130 Q64 128 68 128 Z" fill="transparent" stroke="none"/>

    <path id="hit-muscle-soleus" d="M29 163 Q27 167 27 179 Q27 190 29 196 Q31 200 37 199 Q41 196 41 184 Q41 172 39 165 Q37 163 33 163 Z M71 163 Q73 167 73 179 Q73 190 71 196 Q69 200 63 199 Q59 196 59 184 Q59 172 61 165 Q63 163 67 163 Z" fill="transparent" stroke="none"/>

  </g>

</svg>
