<svg viewBox="0 0 100 250" xmlns="http://www.w3.org/2000/svg">

  <!-- Outline layer: non-interactive body silhouette elements -->
  <g id="outline-layer">
    <!-- Head -->
    <ellipse id="outline-head" cx="50" cy="12" rx="8" ry="10" fill="oklch(0.14 0.02 265)" stroke="oklch(0.18 0.03 265)" stroke-width="1" pointer-events="none"/>
    <!-- Neck -->
    <rect id="outline-neck" x="46" y="21" width="8" height="7" rx="1" fill="oklch(0.14 0.02 265)" stroke="oklch(0.18 0.03 265)" stroke-width="1" pointer-events="none"/>
    <!-- Left hand (viewer's right — opposite mirroring for back view) -->
    <path id="outline-hand-left" d="M83 88 Q85 90 86 93 Q87 96 86 98 Q85 100 83 101 Q81 102 79 101 Q77 100 76 98 Q75 95 76 92 Q77 89 79 88 Z" fill="oklch(0.14 0.02 265)" stroke="oklch(0.18 0.03 265)" stroke-width="1" pointer-events="none"/>
    <!-- Right hand (viewer's left) -->
    <path id="outline-hand-right" d="M17 88 Q15 90 14 93 Q13 96 14 98 Q15 100 17 101 Q19 102 21 101 Q23 100 24 98 Q25 95 24 92 Q23 89 21 88 Z" fill="oklch(0.14 0.02 265)" stroke="oklch(0.18 0.03 265)" stroke-width="1" pointer-events="none"/>
    <!-- Left foot -->
    <path id="outline-foot-left" d="M66 232 Q69 234 70 237 Q70 240 68 241 Q64 242 60 241 Q58 240 58 237 Q58 234 60 232 Z" fill="oklch(0.14 0.02 265)" stroke="oklch(0.18 0.03 265)" stroke-width="1" pointer-events="none"/>
    <!-- Right foot -->
    <path id="outline-foot-right" d="M34 232 Q31 234 30 237 Q30 240 32 241 Q36 242 40 241 Q42 240 42 237 Q42 234 40 232 Z" fill="oklch(0.14 0.02 265)" stroke="oklch(0.18 0.03 265)" stroke-width="1" pointer-events="none"/>
  </g>

  <!-- Visual layer: interactive muscle paths -->
  <g id="visual-layer">

    <!-- Trapezius Upper (upper back/neck area) — left and right -->
    <path id="muscle-trapezius-upper" d="M42 24 Q36 26 30 30 Q27 33 27 36 Q28 39 32 38 Q38 35 44 31 Q46 29 46 25 Z M58 24 Q64 26 70 30 Q73 33 73 36 Q72 39 68 38 Q62 35 56 31 Q54 29 54 25 Z" fill="oklch(0.22 0.02 265)" stroke="oklch(0.18 0.03 265)" stroke-width="1" pointer-events="none"/>

    <!-- Posterior Deltoid (rear shoulder caps) — left and right -->
    <path id="muscle-posterior-deltoid" d="M26 28 Q22 30 21 34 Q20 38 22 41 Q24 43 27 42 Q30 40 31 36 Q31 31 28 28 Z M74 28 Q78 30 79 34 Q80 38 78 41 Q76 43 73 42 Q70 40 69 36 Q69 31 72 28 Z" fill="oklch(0.22 0.02 265)" stroke="oklch(0.18 0.03 265)" stroke-width="1" pointer-events="none"/>

    <!-- Infraspinatus (on scapula) — left and right -->
    <path id="muscle-infraspinatus" d="M30 33 Q28 35 28 40 Q29 44 32 45 Q35 45 37 43 Q38 40 37 36 Q35 33 32 33 Z M70 33 Q72 35 72 40 Q71 44 68 45 Q65 45 63 43 Q62 40 63 36 Q65 33 68 33 Z" fill="oklch(0.22 0.02 265)" stroke="oklch(0.18 0.03 265)" stroke-width="1" pointer-events="none"/>

    <!-- Trapezius Middle (mid back center) — left and right -->
    <path id="muscle-trapezius-middle" d="M37 35 Q34 37 33 42 Q33 46 36 47 Q40 47 43 44 Q45 41 44 37 Q42 35 39 35 Z M63 35 Q66 37 67 42 Q67 46 64 47 Q60 47 57 44 Q55 41 56 37 Q58 35 61 35 Z" fill="oklch(0.22 0.02 265)" stroke="oklch(0.18 0.03 265)" stroke-width="1" pointer-events="none"/>

    <!-- Teres Major (below rear delt) — left and right -->
    <path id="muscle-teres-major" d="M28 38 Q26 40 26 44 Q27 47 30 47 Q33 47 34 44 Q35 41 33 38 Q31 37 29 38 Z M72 38 Q74 40 74 44 Q73 47 70 47 Q67 47 66 44 Q65 41 67 38 Q69 37 71 38 Z" fill="oklch(0.22 0.02 265)" stroke="oklch(0.18 0.03 265)" stroke-width="1" pointer-events="none"/>

    <!-- Rhomboids (between spine and scapula) — left and right -->
    <path id="muscle-rhomboids" d="M40 36 Q37 38 37 43 Q38 47 41 48 Q44 48 46 45 Q47 42 46 38 Q44 36 41 36 Z M60 36 Q63 38 63 43 Q62 47 59 48 Q56 48 54 45 Q53 42 54 38 Q56 36 59 36 Z" fill="oklch(0.22 0.02 265)" stroke="oklch(0.18 0.03 265)" stroke-width="1" pointer-events="none"/>

    <!-- Latissimus Dorsi (wide back) — left and right -->
    <path id="muscle-latissimus-dorsi" d="M27 42 Q24 46 24 54 Q25 60 28 62 Q33 64 38 62 Q42 59 43 54 Q43 48 40 44 Q35 42 29 42 Z M73 42 Q76 46 76 54 Q75 60 72 62 Q67 64 62 62 Q58 59 57 54 Q57 48 60 44 Q65 42 71 42 Z" fill="oklch(0.22 0.02 265)" stroke="oklch(0.18 0.03 265)" stroke-width="1" pointer-events="none"/>

    <!-- Trapezius Lower (lower mid back) — left and right -->
    <path id="muscle-trapezius-lower" d="M37 46 Q34 49 34 53 Q35 56 38 56 Q42 56 44 53 Q45 50 43 47 Q41 46 38 46 Z M63 46 Q66 49 66 53 Q65 56 62 56 Q58 56 56 53 Q55 50 57 47 Q59 46 62 46 Z" fill="oklch(0.22 0.02 265)" stroke="oklch(0.18 0.03 265)" stroke-width="1" pointer-events="none"/>

    <!-- Erector Spinae (along spine) — left and right -->
    <path id="muscle-erector-spinae" d="M44 42 Q42 46 42 58 Q42 66 43 72 Q45 74 48 73 Q49 70 49 58 Q49 46 47 42 Z M56 42 Q58 46 58 58 Q58 66 57 72 Q55 74 52 73 Q51 70 51 58 Q51 46 53 42 Z" fill="oklch(0.22 0.02 265)" stroke="oklch(0.18 0.03 265)" stroke-width="1" pointer-events="none"/>

    <!-- Triceps Long Head (back of upper arm) — left and right -->
    <path id="muscle-triceps-long-head" d="M20 40 Q17 43 17 51 Q18 57 20 60 Q22 62 24 61 Q26 59 26 52 Q26 44 24 41 Q22 39 20 40 Z M80 40 Q83 43 83 51 Q82 57 80 60 Q78 62 76 61 Q74 59 74 52 Q74 44 76 41 Q78 39 80 40 Z" fill="oklch(0.22 0.02 265)" stroke="oklch(0.18 0.03 265)" stroke-width="1" pointer-events="none"/>

    <!-- Wrist Extensors (back forearm) — left and right -->
    <path id="muscle-wrist-extensors" d="M19 63 Q17 66 17 74 Q18 79 20 80 Q22 81 24 80 Q26 77 26 72 Q25 67 23 64 Z M81 63 Q83 66 83 74 Q82 79 80 80 Q78 81 76 80 Q74 77 74 72 Q75 67 77 64 Z" fill="oklch(0.22 0.02 265)" stroke="oklch(0.18 0.03 265)" stroke-width="1" pointer-events="none"/>

    <!-- Lower Back (lumbar region) -->
    <path id="muscle-lower-back" d="M38 62 Q34 65 33 70 Q33 75 36 77 Q40 78 50 78 Q60 78 64 77 Q67 75 67 70 Q66 65 62 62 Q57 60 50 60 Q43 60 38 62 Z" fill="oklch(0.22 0.02 265)" stroke="oklch(0.18 0.03 265)" stroke-width="1" pointer-events="none"/>

    <!-- Gluteus Medius (upper outer buttock) — left and right -->
    <path id="muscle-gluteus-medius" d="M30 70 Q27 73 27 78 Q28 82 32 83 Q36 83 38 80 Q39 77 38 73 Q36 70 32 70 Z M70 70 Q73 73 73 78 Q72 82 68 83 Q64 83 62 80 Q61 77 62 73 Q64 70 68 70 Z" fill="oklch(0.22 0.02 265)" stroke="oklch(0.18 0.03 265)" stroke-width="1" pointer-events="none"/>

    <!-- Gluteus Maximus (buttocks) — left and right -->
    <path id="muscle-gluteus-maximus" d="M32 76 Q28 80 28 86 Q29 91 33 92 Q38 93 43 90 Q46 87 46 82 Q45 77 42 75 Q38 73 34 76 Z M68 76 Q72 80 72 86 Q71 91 67 92 Q62 93 57 90 Q54 87 54 82 Q55 77 58 75 Q62 73 66 76 Z" fill="oklch(0.22 0.02 265)" stroke="oklch(0.18 0.03 265)" stroke-width="1" pointer-events="none"/>

    <!-- Hamstrings Biceps Femoris (back of thigh outer) — left and right -->
    <path id="muscle-hamstrings-biceps-femoris" d="M31 90 Q28 95 28 108 Q28 120 31 126 Q33 129 36 128 Q39 126 39 114 Q39 100 37 93 Q35 90 32 90 Z M69 90 Q72 95 72 108 Q72 120 69 126 Q67 129 64 128 Q61 126 61 114 Q61 100 63 93 Q65 90 68 90 Z" fill="oklch(0.22 0.02 265)" stroke="oklch(0.18 0.03 265)" stroke-width="1" pointer-events="none"/>

    <!-- Hamstrings Semitendinosus (inner back thigh) — left and right -->
    <path id="muscle-hamstrings-semitendinosus" d="M43 90 Q41 95 41 108 Q41 120 43 126 Q45 129 48 128 Q50 126 50 114 Q50 100 49 93 Q47 90 44 90 Z M57 90 Q59 95 59 108 Q59 120 57 126 Q55 129 52 128 Q50 126 50 114 Q50 100 51 93 Q53 90 56 90 Z" fill="oklch(0.22 0.02 265)" stroke="oklch(0.18 0.03 265)" stroke-width="1" pointer-events="none"/>

    <!-- Gastrocnemius (calf — back of lower leg) — left and right -->
    <path id="muscle-gastrocnemius" d="M30 130 Q27 135 27 150 Q27 163 30 168 Q33 171 37 170 Q40 167 40 153 Q40 138 37 132 Q35 130 32 130 Z M70 130 Q73 135 73 150 Q73 163 70 168 Q67 171 63 170 Q60 167 60 153 Q60 138 63 132 Q65 130 68 130 Z" fill="oklch(0.22 0.02 265)" stroke="oklch(0.18 0.03 265)" stroke-width="1" pointer-events="none"/>

    <!-- Soleus (lower calf, below gastrocnemius) — left and right -->
    <path id="muscle-soleus" d="M31 165 Q29 168 29 178 Q29 188 31 194 Q33 197 37 196 Q40 193 40 183 Q40 172 38 167 Q36 165 33 165 Z M69 165 Q71 168 71 178 Q71 188 69 194 Q67 197 63 196 Q60 193 60 183 Q60 172 62 167 Q64 165 67 165 Z" fill="oklch(0.22 0.02 265)" stroke="oklch(0.18 0.03 265)" stroke-width="1" pointer-events="none"/>

  </g>

  <!-- Hit layer: transparent overlay paths for click/tap targets -->
  <g id="hit-layer">

    <path id="hit-muscle-trapezius-upper" d="M40 22 Q34 25 28 30 Q25 33 25 37 Q26 41 31 40 Q37 36 43 31 Q46 28 46 23 Z M60 22 Q66 25 72 30 Q75 33 75 37 Q74 41 69 40 Q63 36 57 31 Q54 28 54 23 Z" fill="transparent" stroke="none"/>

    <path id="hit-muscle-posterior-deltoid" d="M24 26 Q20 29 19 34 Q18 39 20 43 Q22 46 27 45 Q31 43 33 37 Q33 30 29 26 Z M76 26 Q80 29 81 34 Q82 39 80 43 Q78 46 73 45 Q69 43 67 37 Q67 30 71 26 Z" fill="transparent" stroke="none"/>

    <path id="hit-muscle-infraspinatus" d="M28 31 Q26 34 26 41 Q27 46 31 47 Q35 47 38 45 Q40 42 39 36 Q37 31 33 31 Z M72 31 Q74 34 74 41 Q73 46 69 47 Q65 47 62 45 Q60 42 61 36 Q63 31 67 31 Z" fill="transparent" stroke="none"/>

    <path id="hit-muscle-trapezius-middle" d="M35 33 Q32 36 31 42 Q31 47 35 49 Q39 49 43 46 Q46 43 45 37 Q43 33 39 33 Z M65 33 Q68 36 69 42 Q69 47 65 49 Q61 49 57 46 Q54 43 55 37 Q57 33 61 33 Z" fill="transparent" stroke="none"/>

    <path id="hit-muscle-teres-major" d="M26 36 Q24 39 24 44 Q25 48 29 49 Q33 49 35 46 Q37 43 35 38 Q33 35 29 36 Z M74 36 Q76 39 76 44 Q75 48 71 49 Q67 49 65 46 Q63 43 65 38 Q67 35 71 36 Z" fill="transparent" stroke="none"/>

    <path id="hit-muscle-rhomboids" d="M38 34 Q35 37 35 43 Q36 48 40 49 Q44 49 47 46 Q49 43 48 37 Q46 34 42 34 Z M62 34 Q65 37 65 43 Q64 48 60 49 Q56 49 53 46 Q51 43 52 37 Q54 34 58 34 Z" fill="transparent" stroke="none"/>

    <path id="hit-muscle-latissimus-dorsi" d="M25 40 Q22 44 22 54 Q23 62 26 64 Q31 66 38 64 Q43 61 44 55 Q44 47 41 43 Q35 40 28 40 Z M75 40 Q78 44 78 54 Q77 62 74 64 Q69 66 62 64 Q57 61 56 55 Q56 47 59 43 Q65 40 72 40 Z" fill="transparent" stroke="none"/>

    <path id="hit-muscle-trapezius-lower" d="M35 44 Q32 48 32 53 Q33 57 37 58 Q41 58 44 55 Q46 52 44 47 Q42 44 38 44 Z M65 44 Q68 48 68 53 Q67 57 63 58 Q59 58 56 55 Q54 52 56 47 Q58 44 62 44 Z" fill="transparent" stroke="none"/>

    <path id="hit-muscle-erector-spinae" d="M42 40 Q40 45 40 58 Q40 67 41 73 Q43 76 48 75 Q50 72 50 58 Q50 45 48 40 Z M58 40 Q60 45 60 58 Q60 67 59 73 Q57 76 52 75 Q50 72 50 58 Q50 45 52 40 Z" fill="transparent" stroke="none"/>

    <path id="hit-muscle-triceps-long-head" d="M17 38 Q14 42 14 52 Q15 59 17 62 Q20 65 25 63 Q28 61 28 53 Q28 44 25 39 Q22 37 19 38 Z M83 38 Q86 42 86 52 Q85 59 83 62 Q80 65 75 63 Q72 61 72 53 Q72 44 75 39 Q78 37 81 38 Z" fill="transparent" stroke="none"/>

    <path id="hit-muscle-wrist-extensors" d="M16 61 Q14 65 14 74 Q15 80 18 82 Q21 83 25 82 Q27 79 27 73 Q26 67 23 62 Z M84 61 Q86 65 86 74 Q85 80 82 82 Q79 83 75 82 Q73 79 73 73 Q74 67 77 62 Z" fill="transparent" stroke="none"/>

    <path id="hit-muscle-lower-back" d="M36 60 Q32 64 31 70 Q31 76 34 78 Q38 80 50 80 Q62 80 66 78 Q69 76 69 70 Q68 64 64 60 Q58 58 50 58 Q42 58 36 60 Z" fill="transparent" stroke="none"/>

    <path id="hit-muscle-gluteus-medius" d="M28 68 Q25 72 25 79 Q26 84 31 85 Q36 86 39 82 Q41 79 40 73 Q38 68 33 68 Z M72 68 Q75 72 75 79 Q74 84 69 85 Q64 86 61 82 Q59 79 60 73 Q62 68 67 68 Z" fill="transparent" stroke="none"/>

    <path id="hit-muscle-gluteus-maximus" d="M30 74 Q26 78 26 86 Q27 93 32 95 Q38 96 44 93 Q47 90 47 84 Q46 78 43 74 Q39 71 34 74 Z M70 74 Q74 78 74 86 Q73 93 68 95 Q62 96 56 93 Q53 90 53 84 Q54 78 57 74 Q61 71 66 74 Z" fill="transparent" stroke="none"/>

    <path id="hit-muscle-hamstrings-biceps-femoris" d="M29 88 Q26 94 26 108 Q26 121 29 128 Q31 132 36 131 Q40 129 40 116 Q40 100 38 92 Q36 88 32 88 Z M71 88 Q74 94 74 108 Q74 121 71 128 Q69 132 64 131 Q60 129 60 116 Q60 100 62 92 Q64 88 68 88 Z" fill="transparent" stroke="none"/>

    <path id="hit-muscle-hamstrings-semitendinosus" d="M41 88 Q39 94 39 108 Q39 121 41 128 Q43 132 48 131 Q51 129 51 116 Q51 100 50 92 Q48 88 44 88 Z M59 88 Q61 94 61 108 Q61 121 59 128 Q57 132 52 131 Q49 129 49 116 Q49 100 50 92 Q52 88 56 88 Z" fill="transparent" stroke="none"/>

    <path id="hit-muscle-gastrocnemius" d="M28 128 Q25 134 25 150 Q25 165 28 170 Q31 174 37 173 Q41 170 41 154 Q41 137 38 130 Q36 128 32 128 Z M72 128 Q75 134 75 150 Q75 165 72 170 Q69 174 63 173 Q59 170 59 154 Q59 137 62 130 Q64 128 68 128 Z" fill="transparent" stroke="none"/>

    <path id="hit-muscle-soleus" d="M29 163 Q27 167 27 179 Q27 190 29 196 Q31 200 37 199 Q41 196 41 184 Q41 172 39 165 Q37 163 33 163 Z M71 163 Q73 167 73 179 Q73 190 71 196 Q69 200 63 199 Q59 196 59 184 Q59 172 61 165 Q63 163 67 163 Z" fill="transparent" stroke="none"/>

  </g>

</svg>
