<svg viewBox="0 0 100 250" xmlns="http://www.w3.org/2000/svg">

  <!-- Outline layer: non-interactive body silhouette elements -->
  <g id="outline-layer">
    <!-- Head -->
    <ellipse id="outline-head" cx="50" cy="12" rx="8" ry="10" fill="oklch(0.14 0.02 265)" stroke="oklch(0.18 0.03 265)" stroke-width="1" pointer-events="none"/>
    <!-- Neck -->
    <rect id="outline-neck" x="46" y="21" width="8" height="7" rx="1" fill="oklch(0.14 0.02 265)" stroke="oklch(0.18 0.03 265)" stroke-width="1" pointer-events="none"/>
    <!-- Left hand (viewer's right) -->
    <path id="outline-hand-left" d="M17 88 Q15 90 14 93 Q13 96 14 98 Q15 100 17 101 Q19 102 21 101 Q23 100 24 98 Q25 95 24 92 Q23 89 21 88 Z" fill="oklch(0.14 0.02 265)" stroke="oklch(0.18 0.03 265)" stroke-width="1" pointer-events="none"/>
    <!-- Right hand (viewer's left) -->
    <path id="outline-hand-right" d="M83 88 Q85 90 86 93 Q87 96 86 98 Q85 100 83 101 Q81 102 79 101 Q77 100 76 98 Q75 95 76 92 Q77 89 79 88 Z" fill="oklch(0.14 0.02 265)" stroke="oklch(0.18 0.03 265)" stroke-width="1" pointer-events="none"/>
    <!-- Left foot (viewer's right) -->
    <path id="outline-foot-left" d="M34 232 Q31 234 30 237 Q30 240 32 241 Q36 242 40 241 Q42 240 42 237 Q42 234 40 232 Z" fill="oklch(0.14 0.02 265)" stroke="oklch(0.18 0.03 265)" stroke-width="1" pointer-events="none"/>
    <!-- Right foot (viewer's left) -->
    <path id="outline-foot-right" d="M66 232 Q69 234 70 237 Q70 240 68 241 Q64 242 60 241 Q58 240 58 237 Q58 234 60 232 Z" fill="oklch(0.14 0.02 265)" stroke="oklch(0.18 0.03 265)" stroke-width="1" pointer-events="none"/>
  </g>

  <!-- Visual layer: interactive muscle paths (Advanced mode — individual muscle heads) -->
  <g id="visual-layer">

    <!-- Anterior Deltoid (front shoulder caps) — left and right -->
    <path id="muscle-anterior-deltoid" d="M28 28 Q24 28 22 31 Q20 34 21 38 Q23 40 26 39 Q29 37 30 34 Q30 30 28 28 Z M72 28 Q76 28 78 31 Q80 34 79 38 Q77 40 74 39 Q71 37 70 34 Q70 30 72 28 Z" fill="oklch(0.22 0.02 265)" stroke="oklch(0.18 0.03 265)" stroke-width="1" pointer-events="none"/>

    <!-- Lateral Deltoid (outer shoulder caps) — left and right -->
    <path id="muscle-lateral-deltoid" d="M20 32 Q17 33 16 37 Q16 41 18 43 Q20 44 22 43 Q24 41 24 38 Q24 34 22 32 Z M80 32 Q83 33 84 37 Q84 41 82 43 Q80 44 78 43 Q76 41 76 38 Q76 34 78 32 Z" fill="oklch(0.22 0.02 265)" stroke="oklch(0.18 0.03 265)" stroke-width="1" pointer-events="none"/>

    <!-- Pectoralis Major (chest) — left and right -->
    <path id="muscle-pectoralis-major" d="M30 30 Q36 29 44 30 L44 50 Q38 52 32 50 Q28 47 28 42 Q28 36 30 30 Z M56 30 Q64 29 70 30 Q72 36 72 42 Q72 47 68 50 Q62 52 56 50 Z" fill="oklch(0.22 0.02 265)" stroke="oklch(0.18 0.03 265)" stroke-width="1" pointer-events="none"/>

    <!-- Pectoralis Minor (small region beneath pectoralis major, partially visible) — left and right -->
    <path id="muscle-pectoralis-minor" d="M33 34 Q31 36 31 40 Q32 43 35 43 Q37 42 38 39 Q37 36 35 34 Z M67 34 Q69 36 69 40 Q68 43 65 43 Q63 42 62 39 Q63 36 65 34 Z" fill="oklch(0.22 0.02 265)" stroke="oklch(0.18 0.03 265)" stroke-width="1" pointer-events="none"/>

    <!-- Serratus Anterior (side ribs) — left and right -->
    <path id="muscle-serratus-anterior" d="M27 42 Q25 45 26 52 Q28 54 30 53 Q32 50 31 44 Q30 42 27 42 Z M73 42 Q75 45 74 52 Q72 54 70 53 Q68 50 69 44 Q70 42 73 42 Z" fill="oklch(0.22 0.02 265)" stroke="oklch(0.18 0.03 265)" stroke-width="1" pointer-events="none"/>

    <!-- Biceps Long Head (outer biceps) — left and right -->
    <path id="muscle-biceps-long-head" d="M19 40 Q16 43 16 50 Q17 56 19 58 Q21 59 22 58 Q23 56 23 50 Q23 43 21 40 Z M81 40 Q84 43 84 50 Q83 56 81 58 Q79 59 78 58 Q77 56 77 50 Q77 43 79 40 Z" fill="oklch(0.22 0.02 265)" stroke="oklch(0.18 0.03 265)" stroke-width="1" pointer-events="none"/>

    <!-- Biceps Short Head (inner biceps) — left and right -->
    <path id="muscle-biceps-short-head" d="M22 40 Q21 43 21 50 Q22 56 23 58 Q24 58 25 57 Q26 55 25 49 Q24 43 23 40 Z M78 40 Q79 43 79 50 Q78 56 77 58 Q76 58 75 57 Q74 55 75 49 Q76 43 77 40 Z" fill="oklch(0.22 0.02 265)" stroke="oklch(0.18 0.03 265)" stroke-width="1" pointer-events="none"/>

    <!-- Coracobrachialis (inner upper arm near armpit) — left and right -->
    <path id="muscle-coracobrachialis" d="M25 40 Q26 43 26 48 Q25 51 24 51 Q22 50 22 47 Q23 43 24 40 Z M75 40 Q74 43 74 48 Q75 51 76 51 Q78 50 78 47 Q77 43 76 40 Z" fill="oklch(0.22 0.02 265)" stroke="oklch(0.18 0.03 265)" stroke-width="1" pointer-events="none"/>

    <!-- Brachialis (lower biceps area) — left and right -->
    <path id="muscle-brachialis" d="M19 57 Q17 59 17 63 Q18 66 20 67 Q22 67 24 66 Q25 63 25 60 Q24 58 22 57 Z M81 57 Q83 59 83 63 Q82 66 80 67 Q78 67 76 66 Q75 63 75 60 Q76 58 78 57 Z" fill="oklch(0.22 0.02 265)" stroke="oklch(0.18 0.03 265)" stroke-width="1" pointer-events="none"/>

    <!-- Brachioradialis (upper forearm) — left and right -->
    <path id="muscle-brachioradialis" d="M18 65 Q16 68 16 73 Q17 77 19 78 Q21 78 23 77 Q24 74 24 70 Q23 67 21 65 Z M82 65 Q84 68 84 73 Q83 77 81 78 Q79 78 77 77 Q76 74 76 70 Q77 67 79 65 Z" fill="oklch(0.22 0.02 265)" stroke="oklch(0.18 0.03 265)" stroke-width="1" pointer-events="none"/>

    <!-- Pronator Teres (inner forearm rotation) — left and right -->
    <path id="muscle-pronator-teres" d="M22 65 Q23 67 24 70 Q24 73 23 74 Q21 74 20 72 Q20 69 21 66 Z M78 65 Q77 67 76 70 Q76 73 77 74 Q79 74 80 72 Q80 69 79 66 Z" fill="oklch(0.22 0.02 265)" stroke="oklch(0.18 0.03 265)" stroke-width="1" pointer-events="none"/>

    <!-- Wrist Flexors (inner forearm) — left and right -->
    <path id="muscle-wrist-flexors" d="M18 75 Q16 78 16 83 Q17 87 19 88 Q21 88 23 87 Q24 84 24 80 Q23 77 21 75 Z M82 75 Q84 78 84 83 Q83 87 81 88 Q79 88 77 87 Q76 84 76 80 Q77 77 79 75 Z" fill="oklch(0.22 0.02 265)" stroke="oklch(0.18 0.03 265)" stroke-width="1" pointer-events="none"/>

    <!-- Rectus Abdominis (abs — center torso) -->
    <path id="muscle-rectus-abdominis" d="M44 50 Q42 52 42 60 L42 72 Q44 74 50 74 Q56 74 58 72 L58 60 Q58 52 56 50 Q53 49 50 49 Q47 49 44 50 Z" fill="oklch(0.22 0.02 265)" stroke="oklch(0.18 0.03 265)" stroke-width="1" pointer-events="none"/>

    <!-- External Obliques (side torso) — left and right -->
    <path id="muscle-external-obliques" d="M30 50 Q27 53 27 60 Q27 67 29 72 Q32 74 36 73 Q40 71 42 68 L42 52 Q37 50 30 50 Z M70 50 Q73 53 73 60 Q73 67 71 72 Q68 74 64 73 Q60 71 58 68 L58 52 Q63 50 70 50 Z" fill="oklch(0.22 0.02 265)" stroke="oklch(0.18 0.03 265)" stroke-width="1" pointer-events="none"/>

    <!-- Internal Obliques (deep core, smaller region beneath external obliques) — left and right -->
    <path id="muscle-internal-obliques" d="M31 57 Q29 60 29 65 Q30 68 33 68 Q35 67 36 64 Q35 60 33 57 Z M69 57 Q71 60 71 65 Q70 68 67 68 Q65 67 64 64 Q65 60 67 57 Z" fill="oklch(0.22 0.02 265)" stroke="oklch(0.18 0.03 265)" stroke-width="1" pointer-events="none"/>

    <!-- Transverse Abdominis (deepest core, narrow band) — left and right -->
    <path id="muscle-transverse-abdominis" d="M32 70 Q30 72 30 74 Q31 76 33 76 Q35 75 35 73 Q34 71 32 70 Z M68 70 Q70 72 70 74 Q69 76 67 76 Q65 75 65 73 Q66 71 68 70 Z" fill="oklch(0.22 0.02 265)" stroke="oklch(0.18 0.03 265)" stroke-width="1" pointer-events="none"/>

    <!-- Hip Flexors (below obliques) — left and right -->
    <path id="muscle-hip-flexors" d="M38 70 Q34 72 33 76 Q33 80 35 82 Q38 83 42 82 Q44 80 44 76 Q44 72 42 70 Z M62 70 Q66 72 67 76 Q67 80 65 82 Q62 83 58 82 Q56 80 56 76 Q56 72 58 70 Z" fill="oklch(0.22 0.02 265)" stroke="oklch(0.18 0.03 265)" stroke-width="1" pointer-events="none"/>

    <!-- Tensor Fasciae Latae (outer hip) — left and right -->
    <path id="muscle-tensor-fasciae-latae" d="M28 74 Q25 76 25 80 Q26 83 29 84 Q31 83 32 80 Q32 76 30 74 Z M72 74 Q75 76 75 80 Q74 83 71 84 Q69 83 68 80 Q68 76 70 74 Z" fill="oklch(0.22 0.02 265)" stroke="oklch(0.18 0.03 265)" stroke-width="1" pointer-events="none"/>

    <!-- Quadriceps Rectus Femoris (front thigh center) — left and right -->
    <path id="muscle-quadriceps-rectus-femoris" d="M39 82 Q36 86 36 100 Q36 112 38 120 Q40 124 43 124 Q45 122 46 118 Q46 104 45 90 Q44 84 42 82 Z M61 82 Q64 86 64 100 Q64 112 62 120 Q60 124 57 124 Q55 122 54 118 Q54 104 55 90 Q56 84 58 82 Z" fill="oklch(0.22 0.02 265)" stroke="oklch(0.18 0.03 265)" stroke-width="1" pointer-events="none"/>

    <!-- Quadriceps Vastus Lateralis (outer quad) — left and right -->
    <path id="muscle-quadriceps-vastus-lateralis" d="M33 82 Q30 86 30 100 Q30 112 32 120 Q34 124 37 123 Q39 120 39 106 Q39 92 36 84 Q35 82 33 82 Z M67 82 Q70 86 70 100 Q70 112 68 120 Q66 124 63 123 Q61 120 61 106 Q61 92 64 84 Q65 82 67 82 Z" fill="oklch(0.22 0.02 265)" stroke="oklch(0.18 0.03 265)" stroke-width="1" pointer-events="none"/>

    <!-- Quadriceps Vastus Medialis (inner quad/teardrop) — left and right -->
    <path id="muscle-quadriceps-vastus-medialis" d="M43 105 Q41 108 41 116 Q42 122 45 125 Q47 126 49 124 Q50 121 49 115 Q48 109 46 106 Z M57 105 Q59 108 59 116 Q58 122 55 125 Q53 126 51 124 Q50 121 51 115 Q52 109 54 106 Z" fill="oklch(0.22 0.02 265)" stroke="oklch(0.18 0.03 265)" stroke-width="1" pointer-events="none"/>

    <!-- Quadriceps Vastus Intermedius (beneath rectus femoris, smaller visible region) — left and right -->
    <path id="muscle-quadriceps-vastus-intermedius" d="M40 90 Q38 94 38 104 Q39 112 41 116 Q43 117 44 115 Q44 107 43 96 Q42 91 41 90 Z M60 90 Q62 94 62 104 Q61 112 59 116 Q57 117 56 115 Q56 107 57 96 Q58 91 59 90 Z" fill="oklch(0.22 0.02 265)" stroke="oklch(0.18 0.03 265)" stroke-width="1" pointer-events="none"/>

    <!-- Abductors (outer thigh) — left and right -->
    <path id="muscle-abductors" d="M28 84 Q25 88 25 100 Q25 108 27 114 Q29 116 31 115 Q32 112 32 102 Q32 92 30 86 Q29 84 28 84 Z M72 84 Q75 88 75 100 Q75 108 73 114 Q71 116 69 115 Q68 112 68 102 Q68 92 70 86 Q71 84 72 84 Z" fill="oklch(0.22 0.02 265)" stroke="oklch(0.18 0.03 265)" stroke-width="1" pointer-events="none"/>

    <!-- Adductors (inner thigh) — left and right -->
    <path id="muscle-adductors" d="M45 84 Q43 88 43 100 Q43 112 44 120 Q46 124 48 123 Q50 121 50 110 Q50 96 49 86 Q48 84 46 83 Z M55 84 Q57 88 57 100 Q57 112 56 120 Q54 124 52 123 Q50 121 50 110 Q50 96 51 86 Q52 84 54 83 Z" fill="oklch(0.22 0.02 265)" stroke="oklch(0.18 0.03 265)" stroke-width="1" pointer-events="none"/>

    <!-- Sartorius (diagonal across thigh) — left and right -->
    <path id="muscle-sartorius" d="M36 82 Q35 84 37 90 Q39 98 42 108 Q44 116 45 122 Q46 123 47 122 Q47 118 45 110 Q42 98 40 88 Q38 84 37 82 Z M64 82 Q65 84 63 90 Q61 98 58 108 Q56 116 55 122 Q54 123 53 122 Q53 118 55 110 Q58 98 60 88 Q62 84 63 82 Z" fill="oklch(0.22 0.02 265)" stroke="oklch(0.18 0.03 265)" stroke-width="1" pointer-events="none"/>

    <!-- Tibialis Anterior (shin) — left and right -->
    <path id="muscle-tibialis-anterior" d="M33 128 Q31 132 31 145 Q31 158 33 166 Q35 169 37 168 Q39 165 39 152 Q39 138 37 130 Q36 128 34 128 Z M67 128 Q69 132 69 145 Q69 158 67 166 Q65 169 63 168 Q61 165 61 152 Q61 138 63 130 Q64 128 66 128 Z" fill="oklch(0.22 0.02 265)" stroke="oklch(0.18 0.03 265)" stroke-width="1" pointer-events="none"/>

    <!-- Gastrocnemius (calf — visible from front sides) — left and right -->
    <path id="muscle-gastrocnemius" d="M29 130 Q27 134 27 148 Q27 160 29 165 Q31 168 33 167 Q35 164 35 150 Q35 136 33 132 Q32 130 30 130 Z M71 130 Q73 134 73 148 Q73 160 71 165 Q69 168 67 167 Q65 164 65 150 Q65 136 67 132 Q68 130 70 130 Z" fill="oklch(0.22 0.02 265)" stroke="oklch(0.18 0.03 265)" stroke-width="1" pointer-events="none"/>

  </g>

  <!-- Hit layer: transparent overlay paths for click/tap targets -->
  <g id="hit-layer">

    <path id="hit-muscle-anterior-deltoid" d="M28 28 Q24 28 22 31 Q20 34 21 38 Q23 40 26 39 Q29 37 30 34 Q30 30 28 28 Z M72 28 Q76 28 78 31 Q80 34 79 38 Q77 40 74 39 Q71 37 70 34 Q70 30 72 28 Z" fill="transparent" stroke="none"/>

    <path id="hit-muscle-lateral-deltoid" d="M20 32 Q17 33 16 37 Q16 41 18 43 Q20 44 22 43 Q24 41 24 38 Q24 34 22 32 Z M80 32 Q83 33 84 37 Q84 41 82 43 Q80 44 78 43 Q76 41 76 38 Q76 34 78 32 Z" fill="transparent" stroke="none"/>

    <path id="hit-muscle-pectoralis-major" d="M28 28 Q36 27 44 28 L44 52 Q38 54 30 52 Q26 49 26 43 Q26 34 28 28 Z M56 28 Q64 27 72 28 Q74 34 74 43 Q74 49 70 52 Q62 54 56 52 Z" fill="transparent" stroke="none"/>

    <!-- Pectoralis minor hit area expanded to ensure 24x24 minimum -->
    <path id="hit-muscle-pectoralis-minor" d="M30 32 Q28 35 28 42 Q29 46 34 46 Q38 45 39 41 Q38 35 35 32 Z M70 32 Q72 35 72 42 Q71 46 66 46 Q62 45 61 41 Q62 35 65 32 Z" fill="transparent" stroke="none"/>

    <path id="hit-muscle-serratus-anterior" d="M25 40 Q23 44 24 53 Q26 56 30 55 Q33 52 32 43 Q31 40 28 40 Z M75 40 Q77 44 76 53 Q74 56 70 55 Q67 52 68 43 Q69 40 72 40 Z" fill="transparent" stroke="none"/>

    <!-- Biceps long head hit expanded slightly -->
    <path id="hit-muscle-biceps-long-head" d="M17 38 Q14 42 14 51 Q15 58 18 60 Q21 61 24 60 Q26 58 26 51 Q26 43 23 39 Q20 37 17 38 Z M83 38 Q86 42 86 51 Q85 58 82 60 Q79 61 76 60 Q74 58 74 51 Q74 43 77 39 Q80 37 83 38 Z" fill="transparent" stroke="none"/>

    <!-- Biceps short head hit area expanded -->
    <path id="hit-muscle-biceps-short-head" d="M20 38 Q18 42 18 51 Q19 58 21 60 Q24 61 26 60 Q28 57 27 50 Q26 43 24 39 Q22 37 20 38 Z M80 38 Q82 42 82 51 Q81 58 79 60 Q76 61 74 60 Q72 57 73 50 Q74 43 76 39 Q78 37 80 38 Z" fill="transparent" stroke="none"/>

    <!-- Coracobrachialis hit expanded to 24x24 -->
    <path id="hit-muscle-coracobrachialis" d="M22 38 Q24 40 25 46 Q25 53 23 54 Q20 53 19 49 Q19 43 21 39 Z M78 38 Q76 40 75 46 Q75 53 77 54 Q80 53 81 49 Q81 43 79 39 Z" fill="transparent" stroke="none"/>

    <path id="hit-muscle-brachialis" d="M16 56 Q14 59 14 64 Q15 68 18 69 Q22 69 25 68 Q27 65 27 61 Q25 57 22 56 Z M84 56 Q86 59 86 64 Q85 68 82 69 Q78 69 75 68 Q73 65 73 61 Q75 57 78 56 Z" fill="transparent" stroke="none"/>

    <path id="hit-muscle-brachioradialis" d="M15 63 Q13 67 13 74 Q14 79 17 80 Q21 80 24 79 Q26 75 26 71 Q25 67 22 64 Z M85 63 Q87 67 87 74 Q86 79 83 80 Q79 80 76 79 Q74 75 74 71 Q75 67 78 64 Z" fill="transparent" stroke="none"/>

    <!-- Pronator teres hit expanded to 24x24 -->
    <path id="hit-muscle-pronator-teres" d="M18 63 Q19 66 21 70 Q21 75 20 77 Q17 77 16 73 Q16 68 17 64 Z M82 63 Q81 66 79 70 Q79 75 80 77 Q83 77 84 73 Q84 68 83 64 Z" fill="transparent" stroke="none"/>

    <path id="hit-muscle-wrist-flexors" d="M15 73 Q13 77 13 84 Q14 89 17 90 Q21 90 24 89 Q26 86 26 81 Q25 78 22 74 Z M85 73 Q87 77 87 84 Q86 89 83 90 Q79 90 76 89 Q74 86 74 81 Q75 78 78 74 Z" fill="transparent" stroke="none"/>

    <path id="hit-muscle-rectus-abdominis" d="M42 48 Q40 51 40 60 L40 73 Q43 76 50 76 Q57 76 60 73 L60 60 Q60 51 58 48 Q54 47 50 47 Q46 47 42 48 Z" fill="transparent" stroke="none"/>

    <path id="hit-muscle-external-obliques" d="M28 48 Q25 52 25 61 Q25 68 27 73 Q31 76 36 75 Q41 73 43 70 L43 50 Q37 48 28 48 Z M72 48 Q75 52 75 61 Q75 68 73 73 Q69 76 64 75 Q59 73 57 70 L57 50 Q63 48 72 48 Z" fill="transparent" stroke="none"/>

    <!-- Internal obliques hit expanded to 24x24 -->
    <path id="hit-muscle-internal-obliques" d="M28 55 Q26 58 26 66 Q27 70 31 71 Q34 70 36 67 Q36 62 34 57 Q31 54 28 55 Z M72 55 Q74 58 74 66 Q73 70 69 71 Q66 70 64 67 Q64 62 66 57 Q69 54 72 55 Z" fill="transparent" stroke="none"/>

    <!-- Transverse abdominis hit expanded to 24x24 -->
    <path id="hit-muscle-transverse-abdominis" d="M28 68 Q26 70 26 76 Q27 79 31 79 Q35 78 36 75 Q36 71 34 68 Q31 67 28 68 Z M72 68 Q74 70 74 76 Q73 79 69 79 Q65 78 64 75 Q64 71 66 68 Q69 67 72 68 Z" fill="transparent" stroke="none"/>

    <path id="hit-muscle-hip-flexors" d="M36 68 Q32 71 31 77 Q31 82 33 84 Q37 86 42 85 Q45 82 45 77 Q45 71 43 68 Z M64 68 Q68 71 69 77 Q69 82 67 84 Q63 86 58 85 Q55 82 55 77 Q55 71 57 68 Z" fill="transparent" stroke="none"/>

    <!-- Tensor fasciae latae hit expanded to 24x24 -->
    <path id="hit-muscle-tensor-fasciae-latae" d="M24 72 Q22 75 22 82 Q23 86 27 87 Q31 86 33 82 Q34 77 32 73 Q30 71 27 71 Z M76 72 Q78 75 78 82 Q77 86 73 87 Q69 86 67 82 Q66 77 68 73 Q70 71 73 71 Z" fill="transparent" stroke="none"/>

    <path id="hit-muscle-quadriceps-rectus-femoris" d="M37 80 Q34 85 34 100 Q34 113 36 121 Q38 126 43 126 Q46 124 47 119 Q48 104 47 89 Q46 83 43 80 Z M63 80 Q66 85 66 100 Q66 113 64 121 Q62 126 57 126 Q54 124 53 119 Q52 104 53 89 Q54 83 57 80 Z" fill="transparent" stroke="none"/>

    <path id="hit-muscle-quadriceps-vastus-lateralis" d="M31 80 Q28 85 28 100 Q28 114 30 122 Q32 126 37 125 Q40 122 40 107 Q40 92 37 83 Q35 80 32 80 Z M69 80 Q72 85 72 100 Q72 114 70 122 Q68 126 63 125 Q60 122 60 107 Q60 92 63 83 Q65 80 68 80 Z" fill="transparent" stroke="none"/>

    <path id="hit-muscle-quadriceps-vastus-medialis" d="M41 103 Q39 107 39 117 Q40 124 44 127 Q47 128 50 126 Q52 122 51 116 Q50 109 47 104 Z M59 103 Q61 107 61 117 Q60 124 56 127 Q53 128 50 126 Q48 122 49 116 Q50 109 53 104 Z" fill="transparent" stroke="none"/>

    <!-- Vastus intermedius hit expanded to 24x24 -->
    <path id="hit-muscle-quadriceps-vastus-intermedius" d="M37 88 Q35 93 35 105 Q36 114 39 118 Q42 119 44 117 Q45 109 44 98 Q43 91 41 88 Z M63 88 Q65 93 65 105 Q64 114 61 118 Q58 119 56 117 Q55 109 56 98 Q57 91 59 88 Z" fill="transparent" stroke="none"/>

    <!-- Abductors hit area -->
    <path id="hit-muscle-abductors" d="M24 82 Q22 87 22 101 Q22 111 24 117 Q26 120 30 119 Q33 116 33 104 Q33 92 31 85 Q30 82 27 82 Z M76 82 Q78 87 78 101 Q78 111 76 117 Q74 120 70 119 Q67 116 67 104 Q67 92 69 85 Q70 82 73 82 Z" fill="transparent" stroke="none"/>

    <path id="hit-muscle-adductors" d="M43 82 Q41 87 41 101 Q41 113 42 122 Q44 126 48 125 Q51 123 51 111 Q51 96 50 85 Q49 82 46 81 Z M57 82 Q59 87 59 101 Q59 113 58 122 Q56 126 52 125 Q49 123 49 111 Q49 96 50 85 Q51 82 54 81 Z" fill="transparent" stroke="none"/>

    <path id="hit-muscle-sartorius" d="M34 80 Q33 83 35 90 Q37 99 40 109 Q42 118 43 124 Q45 126 47 124 Q47 120 45 112 Q42 100 40 90 Q38 84 36 80 Z M66 80 Q67 83 65 90 Q63 99 60 109 Q58 118 57 124 Q55 126 53 124 Q53 120 55 112 Q58 100 60 90 Q62 84 64 80 Z" fill="transparent" stroke="none"/>

    <path id="hit-muscle-tibialis-anterior" d="M31 126 Q29 131 29 146 Q29 160 31 168 Q33 172 37 171 Q40 168 40 154 Q40 138 38 130 Q37 126 34 126 Z M69 126 Q71 131 71 146 Q71 160 69 168 Q67 172 63 171 Q60 168 60 154 Q60 138 62 130 Q63 126 66 126 Z" fill="transparent" stroke="none"/>

    <path id="hit-muscle-gastrocnemius" d="M27 128 Q25 133 25 149 Q25 162 27 167 Q29 171 34 170 Q37 167 37 152 Q37 136 34 130 Q33 128 30 128 Z M73 128 Q75 133 75 149 Q75 162 73 167 Q71 171 66 170 Q63 167 63 152 Q63 136 66 130 Q67 128 70 128 Z" fill="transparent" stroke="none"/>

  </g>

</svg>
